PathFileType	4	(X/Y/Z)	 s07c0401.trc
DataRate	CameraRate	NumFrames	NumMarkers	Units	OrigDataRate	OrigDataStartFrame	OrigNumFrames
200	200	6	48	mm	200	751	2000
Frame#	Time	racr			lacr			c7			jug			rlel			rdr			llel			ldr			s2			lic			ric			lasi			rasi			rpsi			lpsi			rgt			lgt			rth1			rth2			rth3			rth4			rlfc			rmfc			rsh1			rsh2			rsh3			rsh4			rlmal			rcal			rtoe			rmt5			lth1			lth2			lth4			lth3			llfc			lmfc			lsh1			lsh2			lsh3			lsh4			llmal			lcal			ltoe			lmt5			SBIKE			LBIKE			RBIKE			
		X1	Y1	Z1	X2	Y2	Z2	X3	Y3	Z3	X4	Y4	Z4	X5	Y5	Z5	X6	Y6	Z6	X7	Y7	Z7	X8	Y8	Z8	X9	Y9	Z9	X10	Y10	Z10	X11	Y11	Z11	X12	Y12	Z12	X13	Y13	Z13	X14	Y14	Z14	X15	Y15	Z15	X16	Y16	Z16	X17	Y17	Z17	X18	Y18	Z18	X19	Y19	Z19	X20	Y20	Z20	X21	Y21	Z21	X22	Y22	Z22	X23	Y23	Z23	X24	Y24	Z24	X25	Y25	Z25	X26	Y26	Z26	X27	Y27	Z27	X28	Y28	Z28	X29	Y29	Z29	X30	Y30	Z30	X31	Y31	Z31	X32	Y32	Z32	X33	Y33	Z33	X34	Y34	Z34	X35	Y35	Z35	X36	Y36	Z36	X37	Y37	Z37	X38	Y38	Z38	X39	Y39	Z39	X40	Y40	Z40	X41	Y41	Z41	X42	Y42	Z42	X43	Y43	Z43	X44	Y44	Z44	X45	Y45	Z45	X46	Y46	Z46	X47	Y47	Z47	X48	Y48	Z48	
751	3.7550	728.545782	1384.198434	-24.403721	749.750288	1413.992566	-340.019439	725.344299	1453.837685	-177.472328	672.976303	1309.274926	-197.386120	481.491693	1118.013123	37.830939	696.004833	951.336213	-52.748118	541.052412	1172.311906	-506.229090	698.281980	940.636489	-422.339012	131.406817	1287.699201	-253.382507	311.950104	1307.354713	-380.590481	290.764913	1300.077966	-89.803374	324.019086	1224.012304	-355.877707	299.393184	1249.530771	-108.181351	160.809284	1321.918464	-201.039360	184.757533	1326.701195	-306.478964	218.848805	1189.729258	-52.500118	228.861276	1157.019805	-413.795315	329.028873	1084.102326	-45.674098	402.275560	1035.403847	-52.150545	445.723066	963.248729	-51.424524	427.711943	1060.701080	-69.200271	522.677850	839.365488	-83.169568	511.662941	827.702030	-188.568329	436.017572	723.508163	-60.003265	407.900291	646.518299	-75.630824	330.450616	591.332987	-75.586576	411.437409	639.132692	-118.797958	239.077157	485.359094	-75.384531	163.227922	454.945467	-103.494023	449.434937	400.476742	-114.981814	368.080114	376.000582	-45.467595	272.569252	1041.345124	-416.100785	324.792962	970.591462	-408.434054	355.480084	983.159497	-394.686503	334.621589	882.165241	-404.603970	361.705665	708.874746	-381.176821	344.772965	694.810513	-286.285162	251.565392	606.409010	-403.237968	204.460326	536.159843	-385.529071	125.679879	493.666658	-394.194064	208.109103	536.902389	-343.751603	20.755808	407.371419	-395.260400	-55.446650	424.431886	-357.999662	135.564621	206.260059	-354.463880	61.786005	245.774715	-416.157535	-259.160792	979.006313	-228.097088	-76.139891	84.110404	-435.254073	-82.000303	79.528741	-37.840952	
752	3.7600	730.054238	1383.311784	-24.748076	749.405650	1414.410186	-340.248896	725.807191	1453.329510	-177.572779	673.627294	1308.708518	-198.055081	481.333449	1118.599629	38.469392	696.035473	951.533316	-52.880875	540.910659	1172.156644	-505.490004	697.981646	940.423445	-421.602439	131.425351	1287.971182	-254.656063	313.005909	1307.993687	-379.956878	290.199150	1299.947399	-89.437545	324.796829	1224.632526	-354.956775	298.247126	1249.105745	-107.423398	160.508161	1322.102276	-201.722840	185.175280	1327.047868	-306.937928	216.407860	1188.890363	-53.076712	231.104010	1157.706843	-414.476703	325.076258	1080.932412	-43.748987	397.962561	1030.998324	-51.254445	439.999118	957.857467	-49.796222	423.094192	1056.328744	-66.237525	514.931137	833.204440	-81.379912	505.403600	820.697599	-186.554278	430.128809	715.629835	-59.034784	404.410485	637.862966	-74.919162	328.274561	580.782326	-75.792964	409.013096	630.816786	-117.457298	240.174432	472.605025	-76.178818	165.374979	440.207635	-104.895467	452.129255	391.601940	-115.116170	371.304170	365.931111	-45.601722	275.795587	1042.686921	-416.773658	328.983129	972.343136	-409.006179	359.564317	985.349768	-395.499288	339.599427	884.001384	-404.132107	367.817281	711.227924	-379.602394	350.564438	697.414065	-284.699624	255.578166	611.006434	-402.175141	206.879256	541.861031	-384.594647	127.168389	501.085393	-393.642760	210.633461	542.522332	-342.950874	19.944028	417.932292	-395.059283	-55.807725	436.695594	-358.476686	131.506269	215.133758	-354.705947	58.318907	255.756199	-416.245379	-259.132152	978.960391	-228.281601	-76.151383	83.990404	-435.311833	-82.000823	79.521635	-37.847461	
753	3.7650	731.561581	1382.413060	-25.289099	749.073137	1414.859915	-340.410746	726.233062	1452.759566	-177.791718	674.033095	1308.102140	-198.374143	481.681996	1118.948287	38.535379	695.960017	951.671731	-53.109350	540.767018	1172.050196	-504.765067	697.671679	940.185538	-420.965943	131.427692	1287.992120	-255.742798	313.843816	1308.369561	-379.285695	289.613903	1299.659611	-89.012745	325.443067	1225.081965	-354.101778	297.078772	1248.379606	-106.588055	160.145530	1322.085680	-202.275580	185.486035	1327.235192	-307.267965	213.939571	1187.733787	-53.407503	233.003168	1158.279807	-414.854688	321.503410	1077.100157	-43.463990	393.520416	1026.362510	-50.393722	434.000141	951.902545	-48.733987	419.144183	1051.033003	-64.665846	507.274428	826.896001	-79.832685	498.928170	814.097950	-184.823996	424.473846	707.838615	-57.950775	400.842381	629.060160	-73.932635	325.991761	570.658601	-75.536497	406.204885	622.462965	-116.236336	241.016073	460.130567	-76.700504	166.882210	426.549666	-105.757827	454.421176	381.861039	-114.765667	373.422417	354.831490	-45.484041	278.619146	1043.614111	-417.452478	332.646589	973.937614	-409.606334	363.159604	987.402779	-396.273856	344.145875	885.719881	-403.825998	373.995822	713.329848	-378.510606	356.091732	700.095402	-283.061893	259.656187	615.700242	-401.347794	209.135893	547.654125	-383.819604	128.244783	508.736776	-392.600411	212.877501	548.288892	-342.000236	19.264490	428.696626	-394.749242	-56.174801	448.554952	-358.349477	128.190123	224.568452	-354.828990	55.557978	266.138749	-416.220523	-259.169726	978.915589	-228.624630	-76.163676	83.903993	-435.345849	-82.024548	79.501763	-37.891750	
754	3.7700	733.051042	1381.473981	-25.941606	748.798053	1415.341180	-340.565687	726.601170	1452.186832	-178.061845	674.237808	1307.634633	-198.514658	482.310927	1119.257119	38.663428	695.845259	951.739202	-53.452494	540.633619	1171.941645	-504.005630	697.431771	939.916758	-420.469501	131.417665	1287.969821	-256.617654	314.593721	1308.572896	-378.469742	288.965981	1299.115577	-88.526006	325.949827	1225.417507	-353.344623	295.908922	1247.725225	-105.670412	159.727441	1321.875310	-202.647683	185.698858	1327.310097	-307.413003	211.509331	1186.440388	-53.790749	234.673244	1158.740505	-414.778417	317.921826	1073.324451	-43.178973	388.963476	1021.536871	-49.593868	427.681799	945.783941	-48.352484	415.087167	1045.497611	-63.208524	499.411835	820.780278	-78.352934	492.354081	807.616220	-183.273458	418.726364	700.327831	-56.812567	391.029954	619.185035	-75.563712	323.737596	560.833773	-75.028368	403.113022	614.407611	-114.992452	241.816186	447.605674	-77.307400	168.100395	413.459730	-106.049402	456.160130	371.688679	-114.618446	375.180213	343.504784	-45.632038	281.021941	1044.469770	-418.092749	335.888986	975.392366	-409.945755	366.225154	989.296696	-396.615485	348.404614	887.399879	-403.694779	380.064350	715.620074	-377.544069	361.574768	702.551488	-281.581070	263.629106	620.410938	-400.340064	211.444094	554.078892	-382.964013	129.618031	516.794020	-391.987655	214.595872	554.724692	-340.826711	18.853817	439.732604	-394.736522	-56.191288	459.817217	-357.964532	125.587439	234.394505	-354.984316	53.273492	276.549478	-416.038067	-259.246322	978.874496	-228.991004	-76.165979	83.808228	-435.357884	-82.031363	79.498560	-37.905542	
755	3.7750	734.559408	1380.607273	-26.642050	748.490265	1415.813834	-340.852995	726.930042	1451.772181	-178.396796	674.432397	1307.194727	-198.815139	482.815704	1119.520084	38.840397	695.670464	951.753303	-53.855350	540.449761	1171.841653	-503.307552	697.262819	939.675379	-420.205098	131.343039	1287.838805	-257.209879	315.069731	1308.675788	-377.813897	288.332410	1298.268910	-87.963110	326.371018	1225.550951	-352.480733	294.810101	1246.910837	-104.687239	159.360456	1321.508793	-202.844953	185.860184	1327.283259	-307.446056	209.367863	1184.998187	-54.003473	236.042382	1159.192040	-415.149668	314.122416	1069.531664	-42.840408	384.314972	1016.559325	-48.879129	421.381335	939.900827	-47.442190	410.928512	1039.926789	-61.785266	491.741963	814.569034	-77.389594	485.375422	801.279653	-182.161815	412.905466	692.976506	-55.826877	385.999018	610.250362	-75.086311	321.300308	551.166081	-74.288540	399.859063	606.272217	-113.796963	241.798405	435.626921	-77.268945	168.952496	401.176183	-105.711497	457.273277	361.166140	-114.870916	376.804293	332.438430	-45.749556	283.033362	1045.156337	-418.642346	338.687832	976.770495	-409.954691	368.840014	991.038764	-396.596380	352.324338	888.982772	-403.676777	386.247942	717.794958	-376.523271	367.162812	704.924161	-280.333331	267.719305	625.273707	-399.654601	213.941739	559.904399	-382.419449	131.258257	524.870919	-391.525238	217.197665	560.592269	-340.154454	18.679908	450.538847	-394.262362	-55.982558	471.553226	-357.870497	123.766416	244.558304	-355.060903	51.765120	287.366757	-416.274078	-259.339113	978.818983	-229.304142	-76.184680	83.742773	-435.376021	-82.041567	79.498527	-37.917958	
756	3.7800	736.000399	1379.634224	-27.437379	748.290217	1416.066566	-341.044398	727.178396	1451.310853	-178.876001	674.739182	1306.771374	-199.179378	483.398520	1119.720945	39.104053	695.493128	951.748389	-54.302040	540.175733	1171.763300	-502.681440	697.034280	939.659156	-421.032627	131.294199	1287.660508	-257.542820	315.449419	1308.630872	-376.962122	287.792379	1297.343614	-87.442600	326.616136	1225.666998	-351.596532	293.869353	1245.910034	-103.696734	159.022977	1321.115272	-202.800490	185.942525	1327.224443	-307.275313	207.339547	1183.664082	-54.015027	237.096042	1159.444499	-415.349931	310.212742	1065.658107	-42.548113	379.606707	1011.463061	-48.270290	414.815649	933.974945	-47.070657	406.901510	1033.888463	-60.897201	483.895697	808.403702	-76.560299	478.067668	795.217369	-181.346823	407.020078	685.578464	-54.902137	380.828353	602.412530	-74.590023	318.619740	541.805811	-73.530538	396.698724	598.123654	-112.054803	241.714110	424.084806	-77.101357	170.133580	388.700649	-105.934002	457.917501	350.100868	-114.867709	377.634811	321.085598	-45.798551	284.792873	1045.797898	-418.911203	341.174489	978.067031	-409.908612	371.070801	992.819167	-396.398768	355.953842	890.414516	-404.281723	392.506178	720.185812	-375.690550	372.812581	707.264513	-279.159083	271.976060	630.212793	-398.897510	216.727823	566.329580	-381.888928	133.116738	533.063947	-391.015811	220.045335	566.447643	-339.683723	19.065210	461.412400	-393.677187	-55.396712	483.181842	-357.822667	122.768843	254.927529	-355.097495	51.061018	298.176167	-416.276784	-259.420143	978.767866	-229.600421	-76.190427	83.710007	-435.407724	-82.035430	79.513752	-37.933234	
